<svg xmlns="http://www.w3.org/2000/svg" xmlns:xlink="http://www.w3.org/1999/xlink" viewBox="0 0 24 24">
  <path d="M12,2C6.477,2,2,6.477,2,12c0,5.523,4.477,10,10,10s10-4.477,10-10C22,6.477,17.523,2,12,2z M10,16 c-2.254,0-4.073-1.865-3.998-4.136c0.069-2.072,1.785-3.788,3.857-3.861c0.738-0.026,1.428,0.153,2.027,0.48 c0.445,0.243,0.518,0.854,0.15,1.202l0,0C11.8,9.907,11.448,9.95,11.162,9.796c-0.5-0.27-1.099-0.377-1.738-0.229 c-0.949,0.219-1.703,0.998-1.88,1.956C7.25,13.113,8.463,14.5,10,14.5c1.209,0,2.218-0.859,2.45-2h-1.7 c-0.414,0-0.75-0.336-0.75-0.75v0c0-0.414,0.336-0.75,0.75-0.75h2.219c0.553,0,1.029,0.436,1.031,0.99c0,0.003,0,0.007,0,0.01 C14,14.209,12.209,16,10,16z M18,12v1c0,0.276-0.224,0.5-0.5,0.5l0,0c-0.276,0-0.5-0.224-0.5-0.5v-1h-1c-0.276,0-0.5-0.224-0.5-0.5 v0c0-0.276,0.224-0.5,0.5-0.5h1v-1c0-0.276,0.224-0.5,0.5-0.5l0,0c0.276,0,0.5,0.224,0.5,0.5v1h1c0.276,0,0.5,0.224,0.5,0.5v0 c0,0.276-0.224,0.5-0.5,0.5H18z" />
</svg>