<svg viewBox="0 0 26 26" >
  <path d="M22.386719 18.027344C20.839844 16.703125 19.265625 15.898438 17.738281 17.222656L16.824219 18.019531C16.15625 18.601563 14.914063 21.3125 10.113281 15.785156C5.3125 10.269531 8.167969 9.410156 8.839844 8.835938L9.757813 8.035156C11.277344 6.710938 10.703125 5.042969 9.605469 3.324219L8.945313 2.285156C7.84375 0.574219 6.640625 -0.550781 5.117188 0.769531L4.292969 1.492188C3.617188 1.980469 1.734375 3.578125 1.277344 6.609375C0.726563 10.246094 2.464844 14.414063 6.4375 18.984375C10.40625 23.558594 14.296875 25.855469 17.976563 25.816406C21.035156 25.78125 22.886719 24.140625 23.464844 23.542969L24.289063 22.820313C25.8125 21.5 24.867188 20.152344 23.316406 18.828125Z" />
</svg>