<svg viewBox="0 0 24 24">
  <path d="M7 1C6.448 1 6 1.448 6 2L6 3L5 3C3.9 3 3 3.9 3 5L3 19C3 20.1 3.9 21 5 21L12.998047 21C13.263047 21 13.518078 20.895031 13.705078 20.707031C14.335078 20.077031 13.889047 19 12.998047 19L5 19L5 8L19 8L19 12.998047C19 13.889047 20.077031 14.335078 20.707031 13.705078C20.895031 13.518078 21 13.263047 21 12.998047L21 5C21 3.9 20.1 3 19 3L18 3L18 2C18 1.448 17.552 1 17 1C16.448 1 16 1.448 16 2L16 3L8 3L8 2C8 1.448 7.552 1 7 1 z M 22.585938 15C22.223938 15 21.861937 15.138063 21.585938 15.414062L20.853516 16.146484L22.853516 18.146484L23.585938 17.414062C24.137937 16.862063 24.137938 15.966062 23.585938 15.414062C23.309938 15.138063 22.947937 15 22.585938 15 z M 20.146484 16.853516L15.146484 21.853516C15.053484 21.947516 15 22.074031 15 22.207031L15 23.5C15 23.776 15.224 24 15.5 24L16.792969 24C16.924969 24 17.052484 23.946516 17.146484 23.853516L22.146484 18.853516L20.146484 16.853516 z" />
</svg>