<svg xmlns="http://www.w3.org/2000/svg" viewBox="0 0 24 24">
  <path d="M6.984375 1.9863281 A 1.0001 1.0001 0 0 0 6 3L6 4L5 4C3.9069372 4 3 4.9069372 3 6L3 20C3 21.093063 3.9069372 22 5 22L19 22C20.093063 22 21 21.093063 21 20L21 6C21 4.9069372 20.093063 4 19 4L18 4L18 3 A 1.0001 1.0001 0 0 0 16.984375 1.9863281 A 1.0001 1.0001 0 0 0 16 3L16 4L8 4L8 3 A 1.0001 1.0001 0 0 0 6.984375 1.9863281 z M 5 9L19 9L19 20L5 20L5 9 z M 13 13C12.448 13 12 13.448 12 14L12 17C12 17.552 12.448 18 13 18L16 18C16.552 18 17 17.552 17 17L17 14C17 13.448 16.552 13 16 13L13 13 z" fill="#585858" />
</svg>