<svg xmlns="http://www.w3.org/2000/svg" xmlns:xlink="http://www.w3.org/1999/xlink" viewBox="0 0 128 128"><path fill="#fd9649" d="M54.6 39.5A28.1 37.5 0 1 0 54.6 114.5A28.1 37.5 0 1 0 54.6 39.5Z"/><path fill="#f9da95" d="M26.5,77c0,5.3,0.8,10.4,2.3,14.9c9.4-6.1,15.8-18.9,15.8-33.7c0-5.3-0.8-10.4-2.3-14.9C32.9,49.4,26.5,62.2,26.5,77z"/><path fill="#fff" d="M37.1 60c-.5 0-1-.1-1.5-.4-1.4-.8-1.9-2.7-1.1-4.1 3.3-5.8 7.8-9.9 12.9-12 1.5-.6 3.3.1 3.9 1.7.6 1.5-.1 3.3-1.7 3.9-3.8 1.5-7.3 4.8-9.9 9.4C39.2 59.5 38.2 60 37.1 60zM33.1 70.7c-.2 0-.4 0-.6-.1-.2 0-.4-.1-.6-.2-.2-.1-.4-.2-.5-.3-.2-.1-.3-.2-.5-.4-.1-.1-.3-.3-.4-.5-.1-.2-.2-.3-.3-.5-.1-.2-.1-.4-.2-.6 0-.2-.1-.4-.1-.6 0-.2 0-.4.1-.6 0-.2.1-.4.2-.6.1-.2.2-.4.3-.5.1-.2.2-.3.4-.5.1-.1.3-.3.5-.4.2-.1.3-.2.5-.3.2-.1.4-.1.6-.2.4-.1.8-.1 1.2 0 .2 0 .4.1.6.2.2.1.4.2.5.3.2.1.3.2.5.4.1.1.3.3.4.5.1.2.2.3.3.5.1.2.1.4.2.6 0 .2.1.4.1.6 0 .2 0 .4-.1.6 0 .2-.1.4-.2.6-.1.2-.2.4-.3.5-.1.2-.2.3-.4.5C34.7 70.4 33.9 70.7 33.1 70.7z"/><path fill="#444b54" d="M54.6,117.5c-17.2,0-31.1-18.2-31.1-40.5c0-22.3,14-40.5,31.1-40.5c3.2,0,6.4,0.6,9.5,1.9C77.1,43.8,85.8,59.3,85.8,77C85.8,99.4,71.8,117.5,54.6,117.5z M54.6,42.5C40.8,42.5,29.5,58,29.5,77c0,19,11.3,34.5,25.1,34.5S79.8,96.1,79.8,77c0-15.1-7.4-28.7-17.9-33C59.5,43,57.1,42.5,54.6,42.5z"/><path fill="#fd9649" d="M101.5,77c0,20.7-12.6,37.5-28.1,37.5S45.2,97.8,45.2,77c0-13.1,5-24.6,12.6-31.3c4.4-3.9,9.8-6.2,15.5-6.2C88.9,39.5,101.5,56.3,101.5,77z"/><path fill="#e96a37" d="M73.4,117.5c-13.2,0-25-10.9-29.4-27.1c-0.4-1.6,0.5-3.2,2.1-3.7c1.6-0.4,3.2,0.5,3.7,2.1c3.6,13.5,13.1,22.6,23.6,22.6c1.7,0,3,1.3,3,3S75,117.5,73.4,117.5z"/><path fill="#e96a37" d="M80.3,61.7c0,0.1,0.1,0.2,0.1,0.3c1.5,4.6,2.3,9.7,2.3,15c0,11.6-4,22-10.2,28.9c0,0-0.1,0.1-0.1,0.1c-2.5,2.7-0.6,7.1,3.1,7.1c3.3,0,6.3-0.2,7.5-0.8c5.2-2.5,9.6-7,12.9-12.8c0.5-1,1-2,1.5-3c0.2-0.5,0.5-1,0.7-1.6c1.1-2.7,1.9-5.5,2.5-8.5c0.1-0.6,0.2-1.2,0.3-1.8c0.2-1.2,0.3-2.5,0.4-3.7c0.1-1.3,0.1-2.5,0.1-3.8c0-9.3-2.6-17.8-6.8-24.4C88.6,46.9,77.4,52.7,80.3,61.7z"/><path fill="#444b54" d="M73.4,117.5c-3.7,0-7.3-0.8-10.7-2.4c-1.5-0.7-2.1-2.5-1.4-4c0.7-1.5,2.5-2.1,4-1.4c2.6,1.2,5.3,1.9,8.1,1.9c1.7,0,3,1.3,3,3S75,117.5,73.4,117.5z"/><path fill="#444b54" d="M73.4 117.5c-1.7 0-3-1.3-3-3s1.3-3 3-3c13.9 0 25.1-15.5 25.1-34.5 0-19-11.3-34.5-25.1-34.5-3.7 0-7.2 1.1-10.6 3.2-1.4.9-3.2.5-4.1-.9-.9-1.4-.5-3.2.9-4.1 4.3-2.8 9-4.2 13.8-4.2 17.2 0 31.1 18.2 31.1 40.5C104.5 99.4 90.5 117.5 73.4 117.5zM54.6 117.5c-1.7 0-3-1.3-3-3s1.3-3 3-3c2.8 0 5.5-.6 8.1-1.8 1.5-.7 3.3-.1 4 1.4.7 1.5.1 3.3-1.4 4C61.9 116.7 58.3 117.5 54.6 117.5z"/><path fill="#fff" d="M59.8,54.7c-0.7,0-1.5-0.3-2-0.8c-1.2-1.1-1.3-3-0.2-4.2c2.6-2.8,5.5-4.8,8.6-6.1c1.5-0.6,3.3,0.1,3.9,1.7c0.6,1.5-0.1,3.3-1.7,3.9c-2.3,0.9-4.5,2.5-6.4,4.6C61.4,54.4,60.6,54.7,59.8,54.7z"/><path fill="#444b54" d="M64,41.7c-1.7,0-3-1.3-3-3c0-3.6,0.5-7.2,1.5-10.7c1.6-5.8,4.6-11.1,8.7-15.6c1.1-1.2,3-1.3,4.2-0.2c1.2,1.1,1.3,3,0.2,4.2c-3.4,3.8-5.9,8.3-7.3,13.2c-0.8,2.9-1.3,6-1.3,9C67,40.3,65.7,41.7,64,41.7z"/><path fill="#70e9d4" d="M75.2,28.7c0,0,6.3-22.5,30-12.8C105.2,15.9,98.3,36.6,75.2,28.7z"/><path fill="#444b54" d="M85.1,33.5c-3.4,0-7.1-0.7-10.9-2c-1.6-0.5-2.4-2.2-1.9-3.8c0.5-1.6,2.2-2.4,3.8-1.9c6.5,2.2,12.1,2.2,16.7-0.1c4.2-2.1,6.9-5.7,8.2-8.2c-5.6-1.7-10.4-1.5-14.3,0.7c-1.4,0.8-3.3,0.3-4.1-1.2c-0.8-1.4-0.3-3.3,1.2-4.1c6.3-3.5,13.9-3.5,22.5,0c1.5,0.6,2.2,2.2,1.7,3.7c-0.1,0.4-3.3,9.8-12.4,14.3C92.4,32.7,88.9,33.5,85.1,33.5z"/></svg>