<svg xmlns="http://www.w3.org/2000/svg" xmlns:xlink="http://www.w3.org/1999/xlink" width="48" height="48" viewBox="0 0 48 48"><path fill="#2196F3" d="M42,39c0,1.657-1.344,3-3,3H28c-1.656,0-3-1.343-3-3V28c0-1.657,1.344-3,3-3h11c1.656,0,3,1.343,3,3V39z" style="&#10;    fill: #3f51b5;&#10;"/><path fill="#90CAF9" d="M39,8.001c0.552,0,1,0.449,1,1V20c0,0.551-0.448,1-1,1H28c-0.552,0-1-0.449-1-1V9.001c0-0.551,0.448-1,1-1H39 M39,6.001H28c-1.656,0-3,1.343-3,3V20c0,1.657,1.344,3,3,3h11c1.656,0,3-1.343,3-3V9.001C42,7.344,40.656,6.001,39,6.001L39,6.001z" style="fill: rgb(9, 204, 128);"/><path fill="#9C27B0" d="M22 20c0 1.657-1.343 3-3 3H9c-1.657 0-3-1.343-3-3V9.001c0-1.657 1.343-3 3-3h10c1.657 0 3 1.343 3 3V20zM23 39c0 1.657-1.343 3-3 3H9c-1.657 0-3-1.343-3-3V28c0-1.657 1.343-3 3-3h11c1.657 0 3 1.343 3 3V39z" style="&#10;    fill: #ff2d64;&#10;"/><path fill="#E1BEE7" d="M14.5 32A1.5 1.5 0 1 0 14.5 35 1.5 1.5 0 1 0 14.5 32zM10.5 36A1.5 1.5 0 1 0 10.5 39 1.5 1.5 0 1 0 10.5 36zM18.5 36A1.5 1.5 0 1 0 18.5 39 1.5 1.5 0 1 0 18.5 36zM10.5 28A1.5 1.5 0 1 0 10.5 31 1.5 1.5 0 1 0 10.5 28zM18.5 28A1.5 1.5 0 1 0 18.5 31 1.5 1.5 0 1 0 18.5 28z" style="fill: #fff;"/><g><path fill="#0D47A1" d="M42 38.586L38.586 42H39c1.656 0 3-1.343 3-3V38.586zM25 35.586L25 38.414 38.414 25 35.586 25zM40.286 25.3L25.3 40.286c.296.619.795 1.118 1.414 1.414L41.7 26.714C41.404 26.095 40.905 25.596 40.286 25.3zM28.414 25H28c-1.656 0-3 1.343-3 3v.414L28.414 25zM25 30.586L25 33.414 33.414 25 30.586 25zM42 36.414L42 33.586 33.586 42 36.414 42zM42 31.414L42 28.586 28.586 42 31.414 42z" style="&#10;    fill: rgb(92, 107, 192);&#10;"/></g></svg>