<svg xmlns="http://www.w3.org/2000/svg" xmlns:xlink="http://www.w3.org/1999/xlink" viewBox="0 0 24 24" fill="#333">
  <path d="M12 2 A 1 1 0 0 0 11 3 A 1 1 0 0 0 12 4 A 1 1 0 0 0 13 3 A 1 1 0 0 0 12 2 z M 11.984375 5.9863281 A 1.0001 1.0001 0 0 0 11 7L11 14.585938L8.7070312 12.292969 A 1.0001 1.0001 0 0 0 7.9902344 11.990234 A 1.0001 1.0001 0 0 0 7.2929688 13.707031L11.292969 17.707031 A 1.0001 1.0001 0 0 0 12.707031 17.707031L16.707031 13.707031 A 1.0001 1.0001 0 1 0 15.292969 12.292969L13 14.585938L13 7 A 1.0001 1.0001 0 0 0 11.984375 5.9863281 z M 2.984375 16.986328 A 1.0001 1.0001 0 0 0 2 18L2 20C2 21.093063 2.9069372 22 4 22L20 22C21.093063 22 22 21.093063 22 20L22 18 A 1.0001 1.0001 0 1 0 20 18L20 20L4 20L4 18 A 1.0001 1.0001 0 0 0 2.984375 16.986328 z" fill="#333" />
</svg>