<svg xmlns="http://www.w3.org/2000/svg" xmlns:xlink="http://www.w3.org/1999/xlink" viewBox="0 0 24 24" fill="#5B5B5B">
  <path d="M4 6C2.9 6 2 6.9 2 8L2 16C2 17.1 2.9 18 4 18L15.199219 18C15.699219 18 16.199609 17.800391 16.599609 17.400391L22 12L16.599609 6.5996094C16.199609 6.1996094 15.699219 6 15.199219 6L4 6 z M 4 8L15.199219 8L15.185547 8.0136719L19.175781 12.003906L15.199219 16L4 16L4 8 z M 15 11C14.448 11 14 11.448 14 12C14 12.552 14.448 13 15 13C15.552 13 16 12.552 16 12C16 11.448 15.552 11 15 11 z" fill="#5B5B5B" />
</svg>