<svg xmlns="http://www.w3.org/2000/svg" xmlns:xlink="http://www.w3.org/1999/xlink" viewBox="0 0 24 24" fill="#5B5B5B">
  <path d="M7 2C6.448 2 6 2.448 6 3L6 4L5 4C3.895 4 3 4.895 3 6L3 8L3 9L3 20C3 21.103 3.897 22 5 22L19 22C20.103 22 21 21.103 21 20L21 9L21 8L21 6C21 4.895 20.105 4 19 4L18 4L18 3C18 2.448 17.552 2 17 2C16.448 2 16 2.448 16 3L16 4L8 4L8 3C8 2.448 7.552 2 7 2 z M 5 9L19 9L19.001953 20L5 20L5 9 z M 14.800781 11.708984C14.547531 11.708984 14.293109 11.8065 14.099609 12L11.5 14.599609L10.400391 13.5C10.013391 13.113 9.387 13.113 9 13.5C8.613 13.887 8.613 14.513391 9 14.900391L10.792969 16.693359C11.182969 17.083359 11.817031 17.083359 12.207031 16.693359L15.5 13.400391C15.887 13.013391 15.887 12.387 15.5 12C15.3065 11.8065 15.054031 11.708984 14.800781 11.708984 z" fill="#5B5B5B" />
</svg>