<svg xmlns="http://www.w3.org/2000/svg" xmlns:xlink="http://www.w3.org/1999/xlink" viewBox="0 0 48 48"><path fill="#ab47bc" d="M41,34c0,1.7-1.3,3-3,3H4V11l34-4c1.7,0,3,1.3,3,3V34z"/><path fill="#e1bee7" d="M44,38c0,1.7-1.3,3-3,3H4V11h37c1.7,0,3,1.3,3,3V38z"/><path fill="#ce93d8" d="M40,39H8c-1.1,0-2-0.9-2-2V15c0-1.1,0.9-2,2-2h32c1.1,0,2,0.9,2,2v22C42,38.1,41.1,39,40,39z M8,15 v22h32V15H8z"/><path fill="#fff" d="M32,26c0,4.4-3.6,8-8,8s-8-3.6-8-8s3.6-8,8-8S32,21.6,32,26z"/><path fill="#fff" d="M24.9,34.9c-0.5,0-0.9-0.4-1-0.9c-0.1-0.6,0.3-1,0.9-1.1l0.2,0c0.6-0.1,1.1,0.3,1.1,0.8 c0.1,0.5-0.3,1.1-0.8,1.1c-0.1,0-0.2,0-0.3,0C25,34.9,25,34.9,24.9,34.9z M22.9,34.9c0,0-0.1,0-0.1,0l-0.3,0 c-0.5-0.1-0.9-0.6-0.8-1.1s0.6-0.9,1.1-0.8l0.2,0c0.5,0.1,0.9,0.6,0.9,1.1C23.8,34.6,23.4,34.9,22.9,34.9z M27.1,34.4 c-0.4,0-0.8-0.2-0.9-0.6c-0.2-0.5,0-1.1,0.5-1.3l0.2-0.1c0.5-0.2,1.1,0,1.3,0.5c0.2,0.5,0,1.1-0.5,1.3l-0.3,0.1 C27.4,34.3,27.3,34.4,27.1,34.4z M20.7,34.3c-0.1,0-0.3,0-0.4-0.1l-0.3-0.1c-0.5-0.2-0.7-0.8-0.5-1.3s0.8-0.7,1.3-0.5l0.2,0.1 c0.5,0.2,0.7,0.8,0.5,1.3C21.5,34.1,21.1,34.3,20.7,34.3z M29.1,33.2c-0.3,0-0.6-0.1-0.8-0.4c-0.4-0.4-0.3-1.1,0.1-1.4l0.2-0.1 c0.4-0.4,1-0.3,1.4,0.1c0.4,0.4,0.3,1-0.1,1.4L29.7,33C29.5,33.1,29.3,33.2,29.1,33.2z M18.8,33.1c-0.2,0-0.5-0.1-0.6-0.2 c-0.1-0.1-0.2-0.1-0.2-0.2c-0.4-0.4-0.4-1-0.1-1.4c0.4-0.4,1-0.4,1.4-0.1l0.2,0.1c0.4,0.4,0.5,1,0.1,1.4 C19.4,33,19.1,33.1,18.8,33.1z M30.6,31.5c-0.2,0-0.4-0.1-0.6-0.2c-0.5-0.3-0.6-0.9-0.3-1.4l0.1-0.2c0.3-0.5,0.9-0.6,1.4-0.3 c0.5,0.3,0.6,0.9,0.3,1.4l-0.1,0.2C31.3,31.4,30.9,31.5,30.6,31.5z M17.3,31.4c-0.3,0-0.6-0.2-0.8-0.4c-0.1-0.1-0.1-0.2-0.2-0.2 c-0.3-0.5-0.1-1.1,0.3-1.4c0.5-0.3,1.1-0.1,1.4,0.3l0.1,0.2c0.3,0.5,0.2,1.1-0.3,1.4C17.7,31.3,17.5,31.4,17.3,31.4z M31.6,29.5 c-0.1,0-0.2,0-0.3-0.1c-0.5-0.2-0.8-0.7-0.6-1.3l0.1-0.2c0.2-0.5,0.7-0.8,1.2-0.7c0.5,0.2,0.8,0.7,0.7,1.2c0,0.1-0.1,0.2-0.1,0.3 C32.4,29.2,32,29.5,31.6,29.5z M16.3,29.3c-0.4,0-0.8-0.3-1-0.7l-0.1-0.3c-0.1-0.5,0.2-1.1,0.7-1.2c0.5-0.1,1.1,0.2,1.2,0.7 l0.1,0.2c0.2,0.5-0.1,1.1-0.7,1.2C16.5,29.3,16.4,29.3,16.3,29.3z M32,27.2C32,27.2,32,27.2,32,27.2c-0.6,0-1-0.5-1-1l0-0.2 c0-0.6,0.4-1,1-1s1,0.4,1,1l0,0.3C33,26.8,32.5,27.2,32,27.2z M16,27c-0.6,0-1-0.4-1-1l0-0.3c0-0.6,0.4-1,1-1c0.6,0,1,0.5,1,1 l0,0.2C17,26.6,16.6,27,16,27z M31.7,25c-0.4,0-0.8-0.3-1-0.7L30.7,24c-0.2-0.5,0.1-1.1,0.7-1.2c0.5-0.2,1.1,0.1,1.2,0.7 c0,0.1,0.1,0.2,0.1,0.3c0.1,0.5-0.2,1.1-0.7,1.2C31.9,25,31.8,25,31.7,25z M16.3,24.8c-0.1,0-0.2,0-0.3,0c-0.5-0.2-0.8-0.7-0.7-1.2 l0.1-0.3c0.2-0.5,0.7-0.8,1.3-0.6c0.5,0.2,0.8,0.7,0.6,1.3L17.3,24C17.2,24.5,16.8,24.8,16.3,24.8z M30.9,22.9 c-0.3,0-0.7-0.2-0.9-0.5l-0.1-0.2c-0.3-0.5-0.2-1.1,0.3-1.4c0.5-0.3,1.1-0.2,1.4,0.3l0.1,0.2c0.3,0.5,0.1,1.1-0.3,1.4 C31.2,22.8,31,22.9,30.9,22.9z M17.3,22.7c-0.2,0-0.4-0.1-0.5-0.2c-0.5-0.3-0.6-0.9-0.3-1.4l0.2-0.2c0.3-0.5,0.9-0.6,1.4-0.3 s0.6,0.9,0.3,1.4l-0.1,0.2C17.9,22.5,17.6,22.7,17.3,22.7z M29.4,21.1c-0.2,0-0.5-0.1-0.7-0.3l-0.2-0.1c-0.4-0.4-0.5-1-0.1-1.4 c0.4-0.4,1-0.5,1.4-0.1c0.1,0.1,0.1,0.1,0.2,0.2c0.4,0.4,0.4,1,0.1,1.4C29.9,21,29.7,21.1,29.4,21.1z M18.8,21 c-0.3,0-0.6-0.1-0.8-0.3c-0.4-0.4-0.3-1.1,0.1-1.4l0.2-0.2c0.4-0.4,1.1-0.3,1.4,0.1c0.3,0.4,0.3,1.1-0.1,1.4l-0.2,0.1 C19.2,20.9,19,21,18.8,21z M27.5,19.8c-0.1,0-0.3,0-0.4-0.1l-0.2-0.1c-0.5-0.2-0.7-0.8-0.5-1.3c0.2-0.5,0.8-0.7,1.3-0.5l0.3,0.1 c0.5,0.2,0.7,0.8,0.5,1.3C28.3,19.6,27.9,19.8,27.5,19.8z M20.7,19.7c-0.4,0-0.7-0.2-0.9-0.6c-0.2-0.5,0-1.1,0.5-1.3l0.3-0.1 c0.5-0.2,1.1,0,1.3,0.5c0.2,0.5,0,1.1-0.5,1.3l-0.2,0.1C20.9,19.7,20.8,19.7,20.7,19.7z M25.4,19.1c-0.1,0-0.1,0-0.2,0l-0.2,0 c-0.5-0.1-0.9-0.6-0.9-1.1c0.1-0.5,0.6-0.9,1.1-0.9l0.3,0c0.5,0.1,0.9,0.6,0.8,1.2C26.3,18.8,25.9,19.1,25.4,19.1z M22.8,19.1 c-0.5,0-0.9-0.4-1-0.9c-0.1-0.5,0.3-1.1,0.8-1.1c0.1,0,0.2,0,0.3,0c0.6-0.1,1,0.3,1.1,0.9c0.1,0.5-0.3,1-0.9,1.1l-0.2,0 C22.9,19.1,22.9,19.1,22.8,19.1z"/><path fill="#ff4081" d="M24 25c0 1.7-1.3 3-3 3s-3-1.3-3-3 1.3-3 3-3S24 23.3 24 25zM30 25c0 1.7-1.3 3-3 3s-3-1.3-3-3 1.3-3 3-3S30 23.3 30 25z"/><path fill="#ff4081" d="M24,32l5.1-4.9L24,25l-5.1,2.2L24,32z"/></svg>