<svg xmlns="http://www.w3.org/2000/svg" xmlns:xlink="http://www.w3.org/1999/xlink" viewBox="0 0 48 48"><path fill="#ffc107" d="M39.988,12c0,0,1,23-15.816,32c-17.16-9-16.16-32-16.16-32C16.008,12,24,4,24,4 S30.996,12,39.988,12z"/><path fill="#5d4037" d="M33,21.297l-1.762-3.168l-4.477,1.348L25.848,15h-3.695l-0.91,4.445l-4.438-1.367L15.02,21.23 l3.34,2.746L15,26.703l1.762,3.164l4.477-1.344L22.152,33h3.695l0.91-4.445l4.434,1.367l1.785-3.152l-3.336-2.75L33,21.297z M28.617,24c0,2.484-2.066,4.5-4.617,4.5s-4.617-2.016-4.617-4.5s2.066-4.5,4.617-4.5S28.617,21.516,28.617,24z"/><path fill="#5d4037" d="M30.5,24c0-3.59-2.91-6.5-6.5-6.5s-6.5,2.91-6.5,6.5s2.91,6.5,6.5,6.5S30.5,27.59,30.5,24z M27,24 c0,1.656-1.344,3-3,3s-3-1.344-3-3s1.344-3,3-3S27,22.344,27,24z"/></svg>