<svg xmlns="http://www.w3.org/2000/svg" xmlns:xlink="http://www.w3.org/1999/xlink" width="48" height="48" viewBox="0 0 48 48"><path fill="#BBDEFB" d="M14,41c0,0.553,0.448,1,1,1h27V7c0-0.553-0.447-1-1-1H15c-0.552,0-1,0.447-1,1V41z"/><path fill="#3F51B5" d="M20,6H7C6.447,6,6,6.447,6,7v35h14V6z"/><path fill="#FFEB3B" d="M10 8A2 2 0 1 0 10 12A2 2 0 1 0 10 8Z"/><path fill="#8BC34A" d="M16 8A2 2 0 1 0 16 12A2 2 0 1 0 16 8Z"/><path fill="#FAFAFA" d="M18,15c0-0.553-0.447-1-1-1H9c-0.553,0-1,0.447-1,1l0,0c0,0.553,0.447,1,1,1h8C17.553,16,18,15.553,18,15L18,15z"/></svg>