<svg xmlns="http://www.w3.org/2000/svg" xmlns:xlink="http://www.w3.org/1999/xlink" viewBox="0 0 26 26" fill="#4697F6">
  <path d="M20.265625 4.207031C20.023438 3.96875 19.773438 3.722656 19.527344 3.476563C19.277344 3.230469 19.035156 2.980469 18.792969 2.734375C17.082031 0.988281 16.0625 0 15 0L7 0C4.796875 0 3 1.796875 3 4L3 22C3 24.203125 4.796875 26 7 26L19 26C21.203125 26 23 24.203125 23 22L23 8C23 6.9375 22.011719 5.917969 20.265625 4.207031 Z M 21 22C21 23.105469 20.105469 24 19 24L7 24C5.894531 24 5 23.105469 5 22L5 4C5 2.894531 5.894531 2 7 2L14.289063 1.996094C15.011719 2.179688 15 3.066406 15 3.953125L15 7C15 7.550781 15.449219 8 16 8L19 8C19.996094 8 21 8.003906 21 9Z" fill="#4697F6" />
</svg>